<svg height="512pt" viewBox="0 0 512 512" width="512pt" xmlns="http://www.w3.org/2000/svg"><path d="m87.519531 87.519531h336.960938v336.960938h-336.960938zm0 0" fill="#ececee"/><path d="m106.898438 106.898438h30v298.203124h-30zm0 0" fill="#dadadc"/><path d="m57.199219 156.601562-49.699219 49.699219v99.398438l49.699219 49.699219 49.699219-49.699219v-99.398438zm0 0" fill="#ffb258"/><path d="m305.699219 405.101562h-99.398438l-49.699219 49.699219 49.699219 49.699219h99.398438l49.699219-49.699219zm0 0" fill="#ffe675"/><path d="m454.800781 156.601562-49.699219 49.699219v99.398438l49.699219 49.699219 49.699219-49.699219v-99.398438zm0 0" fill="#ff9ec0"/><path d="m305.699219 7.5h-99.398438l-49.699219 49.699219 49.699219 49.699219h99.398438l49.699219-49.699219zm0 0" fill="#ff6881"/><g fill="#485b73"><path d="m106.898438 7.5h-67.566407c-17.578125 0-31.832031 14.253906-31.832031 31.832031v67.566407l49.699219 49.703124 49.699219-49.703124 49.703124-49.699219zm0 0"/><path d="m106.898438 405.101562-49.699219-49.703124-49.699219 49.703124v67.566407c0 17.578125 14.253906 31.832031 31.832031 31.832031h67.566407l49.703124-49.699219zm0 0"/><path d="m454.800781 355.398438-49.699219 49.703124-49.703124 49.699219 49.703124 49.699219h67.566407c17.578125 0 31.832031-14.253906 31.832031-31.832031v-67.566407zm0 0"/><path d="m472.667969 7.5h-67.566407l-49.703124 49.699219 49.703124 49.699219 49.699219 49.703124 49.699219-49.703124v-67.566407c0-17.578125-14.253906-31.832031-31.832031-31.832031zm0 0"/></g><path d="m106.898438 7.5h99.402343v99.398438h-99.402343zm0 0" fill="#91daff"/><path d="m305.699219 7.5h99.402343v99.398438h-99.402343zm0 0" fill="#ffb258"/><path d="m106.898438 405.101562h99.402343v99.398438h-99.402343zm0 0" fill="#ff9ec0"/><path d="m305.699219 405.101562h99.402343v99.398438h-99.402343zm0 0" fill="#91daff"/><path d="m405.101562 305.699219h99.398438v99.402343h-99.398438zm0 0" fill="#4cb4a4"/><path d="m405.101562 106.898438h99.398438v99.402343h-99.398438zm0 0" fill="#6dd1e0"/><path d="m7.5 305.699219h99.398438v99.402343h-99.398438zm0 0" fill="#ff6881"/><path d="m7.5 106.898438h99.398438v99.402343h-99.398438zm0 0" fill="#4cb4a4"/><path d="m39.332031 0c-21.6875 0-39.332031 17.644531-39.332031 39.332031v102.34375c0 4.140625 3.359375 7.5 7.5 7.5 4.144531 0 7.5-3.359375 7.5-7.5v-27.277343h84.398438v84.402343h-84.398438v-27.125c0-4.144531-3.355469-7.5-7.5-7.5-4.140625 0-7.5 3.355469-7.5 7.5v300.992188c0 21.6875 17.644531 39.332031 39.332031 39.332031h433.335938c21.6875 0 39.332031-17.644531 39.332031-39.332031v-104.992188c0-4.144531-3.359375-7.5-7.5-7.5s-7.5 3.355469-7.5 7.5v29.925781h-84.398438v-84.402343h84.398438v24.476562c0 4.140625 3.359375 7.5 7.5 7.5s7.5-3.359375 7.5-7.5v-31.976562-.003907-266.363281c0-21.6875-17.644531-39.332031-39.332031-39.332031zm75.066407 397.601562v-283.203124h283.203124v283.203124zm-15-183.800781v84.398438h-84.398438v-84.398438zm-84.398438 99.398438h84.398438v84.402343h-84.398438zm482-114.398438h-84.398438v-84.402343h84.398438zm-84.398438 99.398438v-84.398438h84.398438v84.398438zm84.398438-258.867188v60.066407h-84.398438v-84.398438h60.066407c13.417969 0 24.332031 10.914062 24.332031 24.332031zm-99.398438 60.066407h-84.402343v-84.398438h84.402343zm-99.402343 0h-84.398438v-84.398438h84.398438zm-99.398438 0h-84.402343v-84.398438h84.402343zm-183.800781 0v-60.066407c0-13.417969 10.914062-24.332031 24.332031-24.332031h60.066407v84.398438zm0 373.269531v-60.066407h84.398438v84.398438h-60.066407c-13.417969 0-24.332031-10.914062-24.332031-24.332031zm99.398438-60.066407h84.402343v84.398438h-84.402343zm99.402343 0h84.398438v84.398438h-84.398438zm99.398438 0h84.402343v84.398438h-84.402343zm183.800781 60.066407c0 13.417969-10.914062 24.332031-24.332031 24.332031h-60.066407v-84.398438h84.398438zm0 0"/><path d="m169.957031 236.558594c-4.140625 0-7.5 3.355468-7.5 7.5v15.570312c0 4.144532 3.359375 7.5 7.5 7.5 4.144531 0 7.5-3.355468 7.5-7.5v-15.570312c0-4.144532-3.355469-7.5-7.5-7.5zm0 0"/><path d="m342.042969 236.558594c-4.144531 0-7.5 3.355468-7.5 7.5v15.570312c0 4.144532 3.355469 7.5 7.5 7.5 4.140625 0 7.5-3.355468 7.5-7.5v-15.570312c0-4.144532-3.359375-7.5-7.5-7.5zm0 0"/><path d="m282.171875 252.898438c-3.117187-2.722657-7.855469-2.40625-10.582031.710937-3.796875 4.34375-9.476563 6.832031-15.589844 6.832031s-11.792969-2.488281-15.589844-6.832031c-2.726562-3.117187-7.464844-3.433594-10.582031-.710937-3.121094 2.730468-3.4375 7.464843-.710937 10.585937 6.644531 7.601563 16.441406 11.957031 26.882812 11.957031s20.238281-4.359375 26.882812-11.957031c2.726563-3.121094 2.40625-7.859375-.710937-10.585937zm0 0"/></svg>